# xmcd
#
# Track frame offsets:
#	150
#	8882
#	20085
#	35788
#	43889
#	57951
#	74663
#	82920
#	90541
#	108775
#	117548
#	128688
#
# Disc length: 1841 seconds
#
# Revision: 1
# Processed by: cddbd v1.5.2PL0 Copyright (c) Steve Scherf et al.
# Submitted via: audiograbber 1.83.01
#
DISCID=a2072f0c
DTITLE=Tinner Christian - Vielsaitigi Hackbrett Musig
DYEAR=2001
DGENRE=Folklore
TTITLE0=Emil spielt Hackbrett
TTITLE1=Appezeller Landsgmendslied
TTITLE2=La marche des Manouches
TTITLE3=Masolke
TTITLE4=Säntis-Zäuerli mit Walzer
TTITLE5=Second Waltz
TTITLE6=Urnäscher-Chilbi
TTITLE7=Sailor's Hornpipe
TTITLE8=Seufzer Walzer
TTITLE9=Em Götti Ernscht zom Föfzgischte
TTITLE10=Allegretto aus der Symphonie Nr.40 KV 550
TTITLE11=Höchalp-Stobete
EXTD=
EXTT0=überliefert
EXTT1=J.H.Tobler
EXTT2=trad.
EXTT3=J.Peterer Sohn (25.10.74)
EXTT4=Andrea Kind
EXTT5=Dmitri Schostakowitsch
EXTT6=trad.
EXTT7=trad.
EXTT8=J.Ivanovici
EXTT9=Walter Alder
EXTT10=W.A.Mozart
EXTT11=Jakob Alder (komp. 1959)
PLAYORDER=
